<svg width="96" height="29" viewBox="0 0 96 29" fill="none" xmlns="http://www.w3.org/2000/svg">
<path d="M4.27577 16.7803C3.64245 16.7803 3.01281 16.5437 2.53045 16.067C1.56574 15.1136 1.56574 13.5708 2.53045 12.6174L14.5268 0.75817C15.4914 -0.195223 17.0526 -0.195223 18.0174 0.75817C18.9821 1.71156 18.9821 3.25445 18.0174 4.20785L6.02109 16.0634C5.53873 16.5401 4.90909 16.7766 4.27577 16.7766V16.7803Z" fill="white"/>
<path d="M2.67179 28.0039C2.04583 28.0039 1.42351 27.7672 0.946767 27.2905C-0.00671038 26.3368 -0.00671038 24.7936 0.946767 23.84L12.8036 11.9819C13.757 11.0283 15.3001 11.0283 16.2536 11.9819C17.2072 12.9355 17.2072 14.4788 16.2536 15.4324L4.39681 27.2905C3.92006 27.7672 3.29774 28.0039 2.67179 28.0039Z" fill="white"/>
<path d="M11.5493 28.9885C10.9191 28.9885 10.2925 28.7503 9.81251 28.2702C8.85249 27.3101 8.85249 25.7563 9.81251 24.796L17.6979 16.9096C18.6579 15.9494 20.2115 15.9494 21.1716 16.9096C22.1315 17.8698 22.1315 19.4235 21.1716 20.3838L13.2862 28.2702C12.8062 28.7503 12.1796 28.9885 11.5493 28.9885Z" fill="white"/>
<path d="M56.2269 21.4169L50.8546 14.5867V21.4169H46.8539V0H50.8546V12.1845L56.1697 5.38318H61.3706L54.398 13.429L61.4277 21.4169H56.2269Z" fill="white"/>
<path d="M78.6959 5.38349L68.8943 29H64.6364L68.0655 21.0121L61.7216 5.38349H66.2081L70.2945 16.584L74.438 5.38349H78.6959Z" fill="white"/>
<path d="M43.7145 12.8011C43.7145 13.3793 43.6763 13.8998 43.5997 14.3624H31.9724C32.0681 15.5189 32.47 16.4248 33.1782 17.0802C33.8863 17.7355 34.7572 18.0632 35.7907 18.0632C37.2836 18.0632 38.3459 17.4175 38.9775 16.1261H43.3126C42.8533 17.6681 41.9728 18.9402 40.6713 19.9426C39.3698 20.9256 37.7717 21.4171 35.8769 21.4171C34.3457 21.4171 32.9676 21.0798 31.7427 20.4052C30.5369 19.7113 29.5895 18.7379 28.9005 17.485C28.2306 16.2321 27.8956 14.7864 27.8956 13.148C27.8956 11.4904 28.2306 10.0351 28.9005 8.78219C29.5703 7.5293 30.5082 6.56553 31.714 5.8909C32.9198 5.21627 34.3074 4.87895 35.8769 4.87895C37.3889 4.87895 38.7382 5.20663 39.9249 5.86199C41.1307 6.51734 42.059 7.45219 42.7097 8.66654C43.3796 9.8616 43.7145 11.2398 43.7145 12.8011ZM39.5517 11.6446C39.5325 10.6037 39.1593 9.77486 38.432 9.15806C37.7047 8.52197 36.8147 8.20393 35.762 8.20393C34.7668 8.20393 33.9246 8.51233 33.2356 9.12914C32.5657 9.72668 32.1542 10.5651 32.0011 11.6446H39.5517Z" fill="white"/>
<path d="M86.9583 21.4781C85.4343 21.4781 84.0626 21.1404 82.8434 20.4651C81.6241 19.7705 80.6621 18.7961 79.9572 17.542C79.2714 16.2879 78.9285 14.8408 78.9285 13.2007C78.9285 11.5607 79.2809 10.1136 79.9858 8.85946C80.7097 7.60532 81.6908 6.64059 82.9291 5.96528C84.1674 5.27068 85.5486 4.92338 87.0726 4.92338C88.5967 4.92338 89.9779 5.27068 91.2162 5.96528C92.4545 6.64059 93.4261 7.60532 94.1309 8.85946C94.8549 10.1136 95.2168 11.5607 95.2168 13.2007C95.2168 14.8408 94.8453 16.2879 94.1024 17.542C93.3784 18.7961 92.3878 19.7705 91.1305 20.4651C89.8922 21.1404 88.5014 21.4781 86.9583 21.4781ZM86.9583 17.9472C87.6823 17.9472 88.3586 17.7735 88.9872 17.4262C89.635 17.0596 90.1493 16.5194 90.5304 15.8055C90.9114 15.0916 91.1019 14.2233 91.1019 13.2007C91.1019 11.6765 90.7018 10.5091 89.9017 9.69877C89.1206 8.86911 88.1585 8.45428 87.0155 8.45428C85.8724 8.45428 84.9104 8.86911 84.1293 9.69877C83.3673 10.5091 82.9863 11.6765 82.9863 13.2007C82.9863 14.725 83.3577 15.902 84.1007 16.7316C84.8628 17.542 85.8153 17.9472 86.9583 17.9472Z" fill="white"/>
</svg>
