<svg width="96" height="29" viewBox="0 0 96 29" fill="none" xmlns="http://www.w3.org/2000/svg">
<path d="M4.28813 16.7803C3.65481 16.7803 3.02517 16.5438 2.54281 16.0671C1.5781 15.1137 1.5781 13.5708 2.54281 12.6174L14.5391 0.758181C15.5038 -0.195212 17.065 -0.195212 18.0298 0.758181C18.9945 1.71157 18.9945 3.25446 18.0298 4.20786L6.03345 16.0634C5.55109 16.5401 4.92145 16.7766 4.28813 16.7766V16.7803Z" fill="#3F2F8D"/>
<path d="M2.68416 28.0039C2.05821 28.0039 1.43589 27.7672 0.959142 27.2905C0.0056645 26.3368 0.0056645 24.7936 0.959142 23.84L12.8159 11.982C13.7694 11.0284 15.3125 11.0284 16.266 11.982C17.2196 12.9355 17.2196 14.4788 16.266 15.4324L4.40918 27.2905C3.93243 27.7672 3.31012 28.0039 2.68416 28.0039Z" fill="#3F2F8D"/>
<path d="M11.5617 28.9885C10.9315 28.9885 10.3049 28.7503 9.82489 28.2702C8.86487 27.3101 8.86487 25.7563 9.82489 24.796L17.7102 16.9096C18.6703 15.9495 20.2239 15.9495 21.184 16.9096C22.1438 17.8698 22.1438 19.4235 21.184 20.3838L13.2985 28.2702C12.8185 28.7503 12.192 28.9885 11.5617 28.9885Z" fill="#3F2F8D"/>
<path d="M56.258 21.4169L50.8857 14.5867V21.4169H46.8851V0H50.8857V12.1845L56.2009 5.38318H61.4017L54.4292 13.429L61.4589 21.4169H56.258Z" fill="#3F2F8D"/>
<path d="M78.7271 5.38348L68.9255 29H64.6676L68.0968 21.0121L61.7529 5.38348H66.2393L70.3257 16.584L74.4692 5.38348H78.7271Z" fill="#3F2F8D"/>
<path d="M43.7458 12.8011C43.7458 13.3793 43.7075 13.8998 43.6309 14.3624H32.0036C32.0993 15.5189 32.5012 16.4248 33.2094 17.0802C33.9176 17.7355 34.7884 18.0632 35.822 18.0632C37.3149 18.0632 38.3771 17.4175 39.0087 16.1261H43.3439C42.8845 17.6681 42.0041 18.9403 40.7026 19.9426C39.4011 20.9256 37.8029 21.4171 35.9081 21.4171C34.3769 21.4171 32.9989 21.0798 31.7739 20.4052C30.5681 19.7113 29.6207 18.7379 28.9317 17.485C28.2618 16.2321 27.9269 14.7864 27.9269 13.148C27.9269 11.4904 28.2618 10.0351 28.9317 8.78219C29.6016 7.5293 30.5394 6.56554 31.7452 5.8909C32.951 5.21627 34.3386 4.87895 35.9081 4.87895C37.4201 4.87895 38.7695 5.20663 39.9561 5.86199C41.1619 6.51735 42.0902 7.4522 42.741 8.66654C43.4108 9.86161 43.7458 11.2398 43.7458 12.8011ZM39.5829 11.6446C39.5638 10.6037 39.1905 9.77487 38.4632 9.15806C37.7359 8.52198 36.8459 8.20393 35.7933 8.20393C34.798 8.20393 33.9559 8.51234 33.2668 9.12915C32.5969 9.72668 32.1854 10.5652 32.0323 11.6446H39.5829Z" fill="#3F2F8D"/>
<path d="M86.9896 21.4781C85.4655 21.4781 84.0939 21.1404 82.8746 20.4651C81.6554 19.7705 80.6933 18.7962 79.9884 17.542C79.3026 16.2879 78.9597 14.8408 78.9597 13.2007C78.9597 11.5607 79.3121 10.1136 80.017 8.85947C80.7409 7.60533 81.722 6.6406 82.9603 5.96529C84.1986 5.27069 85.5798 4.92339 87.1039 4.92339C88.6279 4.92339 90.0091 5.27069 91.2474 5.96529C92.4857 6.6406 93.4573 7.60533 94.1622 8.85947C94.8861 10.1136 95.2481 11.5607 95.2481 13.2007C95.2481 14.8408 94.8766 16.2879 94.1336 17.542C93.4097 18.7962 92.419 19.7705 91.1617 20.4651C89.9234 21.1404 88.5327 21.4781 86.9896 21.4781ZM86.9896 17.9472C87.7135 17.9472 88.3898 17.7735 89.0185 17.4262C89.6662 17.0596 90.1806 16.5194 90.5616 15.8055C90.9426 15.0916 91.1331 14.2234 91.1331 13.2007C91.1331 11.6765 90.733 10.5092 89.9329 9.69878C89.1518 8.86912 88.1898 8.45429 87.0467 8.45429C85.9037 8.45429 84.9416 8.86912 84.1605 9.69878C83.3985 10.5092 83.0175 11.6765 83.0175 13.2007C83.0175 14.725 83.389 15.902 84.132 16.7316C84.894 17.542 85.8465 17.9472 86.9896 17.9472Z" fill="#3F2F8D"/>
</svg>
