<svg width="29" height="29" viewBox="0 0 29 29" fill="none" xmlns="http://www.w3.org/2000/svg">
<path d="M7.76405 16.7478C7.13539 16.7478 6.51038 16.513 6.03157 16.0399C5.07395 15.0935 5.07395 13.5619 6.03157 12.6155L17.9397 0.843545C18.8972 -0.102837 20.447 -0.102837 21.4046 0.843545C22.3623 1.78993 22.3623 3.32147 21.4046 4.26786L9.49654 16.0362C9.01773 16.5094 8.39272 16.7442 7.76405 16.7442V16.7478Z" fill="white"/>
<path d="M6.17188 27.8889C5.55053 27.8889 4.93279 27.6539 4.45954 27.1808C3.51308 26.2341 3.51308 24.7022 4.45954 23.7557L16.2291 11.9848C17.1756 11.0382 18.7073 11.0382 19.6539 11.9848C20.6004 12.9314 20.6004 14.4632 19.6539 15.4098L7.88421 27.1808C7.41097 27.6539 6.79323 27.8889 6.17188 27.8889Z" fill="white"/>
<path d="M14.9841 28.8662C14.3585 28.8662 13.7366 28.6298 13.2601 28.1532C12.3071 27.2002 12.3071 25.6578 13.2601 24.7046L21.0874 16.8762C22.0404 15.9231 23.5826 15.9231 24.5356 16.8762C25.4884 17.8293 25.4884 19.3716 24.5356 20.3249L16.7082 28.1532C16.2317 28.6298 15.6097 28.8662 14.9841 28.8662Z" fill="white"/>
</svg>
