<svg width="30" height="30" viewBox="0 0 30 30" fill="none" xmlns="http://www.w3.org/2000/svg">
<path d="M8.26405 17.2478C7.63539 17.2478 7.01038 17.013 6.53157 16.5399C5.57395 15.5935 5.57395 14.0619 6.53157 13.1155L18.4397 1.34355C19.3972 0.397163 20.947 0.397163 21.9046 1.34355C22.8623 2.28993 22.8623 3.82147 21.9046 4.76786L9.99654 16.5362C9.51773 17.0094 8.89272 17.2442 8.26405 17.2442V17.2478Z" fill="#3F2F8D"/>
<path d="M6.67188 28.3889C6.05053 28.3889 5.43279 28.1539 4.95954 27.6808C4.01308 26.7341 4.01308 25.2022 4.95954 24.2557L16.7291 12.4848C17.6756 11.5382 19.2073 11.5382 20.1539 12.4848C21.1004 13.4314 21.1004 14.9632 20.1539 15.9098L8.38421 27.6808C7.91097 28.1539 7.29323 28.3889 6.67188 28.3889Z" fill="#3F2F8D"/>
<path d="M15.4841 29.3662C14.8585 29.3662 14.2366 29.1298 13.7601 28.6532C12.8071 27.7002 12.8071 26.1578 13.7601 25.2046L21.5874 17.3762C22.5404 16.4231 24.0826 16.4231 25.0356 17.3762C25.9884 18.3293 25.9884 19.8716 25.0356 20.8248L17.2082 28.6532C16.7317 29.1298 16.1097 29.3662 15.4841 29.3662Z" fill="#3F2F8D"/>
</svg>
